# xmcd CD database file
#
# Track frame offsets:
#	150
#	21408
#	38866
#	52568
#	70036
#	90596
#	110427
#	131285
#	186319
#	211364
#	228044
#	243087
#	255204
#
# Disc length: 3638 seconds
#
# Revision: 5
# Processed by: cddbd v1.5.2PL0 Copyright (c) Steve Scherf et al.
# Submitted via: CDex 1.79
#
DISCID=990e340d
DTITLE=Mike Oldfield - Discovery (The Original Album) (Deluxe Edition) [CD) (1 of 3)
DYEAR=2016
DGENRE=Progressive Rock
TTITLE0=To France
TTITLE1=Poison Arrows
TTITLE2=Crystal Gazing
TTITLE3=Tricks Of The Light
TTITLE4=Discovery
TTITLE5=Talk About Your Life
TTITLE6=Saved By A Bell
TTITLE7=The Lake (Instrumental)
TTITLE8=To France (extended version)
TTITLE9=In The Pool
TTITLE10=Bones
TTITLE11=Afghan
TTITLE12=Tricks Of The Light (Instrumental)
EXTD=YEAR: 2016
EXTT0=
EXTT1=
EXTT2=
EXTT3=
EXTT4=
EXTT5=
EXTT6=
EXTT7=
EXTT8=
EXTT9=
EXTT10=
EXTT11=
EXTT12=
PLAYORDER=
